<?xml version="1.0" encoding="UTF-8" standalone="no"?>
<!DOCTYPE svg PUBLIC "-//W3C//DTD SVG 1.1//EN" "http://www.w3.org/Graphics/SVG/1.1/DTD/svg11.dtd">
<svg width="100%" height="100%" viewBox="0 0 300 300" version="1.1" xmlns="http://www.w3.org/2000/svg" xmlns:xlink="http://www.w3.org/1999/xlink" xml:space="preserve" xmlns:serif="http://www.serif.com/" style="fill-rule:evenodd;clip-rule:evenodd;stroke-linejoin:round;stroke-miterlimit:2;">
    <g transform="matrix(0.73882,0,0,0.73882,-71.6547,83.6651)">
        <g transform="matrix(4.16667,0,0,4.16667,140.795,72.4579)">
            <path d="M0,8.317L0,9.416L-3.21,11.474C-3.237,11.474 -3.239,15.244 -3.24,15.573C-3.833,15.767 -4.26,16.244 -4.26,16.982C-4.26,17.72 -3.597,18.464 -2.778,18.464C-1.96,18.464 -1.296,17.747 -1.296,16.982C-1.296,16.217 -1.797,15.676 -2.466,15.533L-2.466,12L0.455,10.139L3.375,12L3.375,15.533C2.706,15.676 2.205,16.217 2.205,16.982C2.205,17.747 2.869,18.464 3.687,18.464C4.505,18.464 5.169,17.72 5.169,16.982C5.169,16.244 4.741,15.767 4.148,15.573C4.148,15.244 4.146,11.474 4.119,11.474L0.876,9.416L0.876,8.317L0.876,4.071C0.876,3.755 0.875,3.434 0.875,3.114L2.849,5.433C2.478,6.007 2.506,6.744 3.047,7.285C3.588,7.826 4.564,7.864 5.143,7.285C5.722,6.706 5.665,5.711 5.143,5.189C4.621,4.667 3.981,4.633 3.425,4.915C3.279,4.769 1.711,2.857 0.904,2.061C1.047,1.581 1.431,0.664 2.292,0.664L5.117,0.664C5.638,0.664 6.479,0.691 6.971,0.573C8.51,0.206 9.649,-1.111 9.649,-2.678C9.649,-4.491 8.126,-5.968 6.222,-6.029C5.778,-7.22 4.578,-8.074 3.166,-8.076C2.53,-9.301 1.175,-10.147 -0.395,-10.147C-2.504,-10.147 -4.227,-8.62 -4.336,-6.697C-5.026,-6.488 -5.616,-6.066 -6.019,-5.514C-7.64,-5.309 -8.89,-3.998 -8.89,-2.411C-8.89,-1.084 -8.017,0.049 -6.784,0.505C-5.899,0.833 -5.28,0.697 -4.3,0.697L-1.566,0.697C-1.566,0.697 0.498,0.214 0.498,-1.962L1.249,-1.962L0.072,-3.644L-1.095,-2.006L-0.354,-2.006C-0.354,-2.006 -0.646,-0.325 -1.812,-0.325L-5.304,-0.325C-6.227,-0.325 -6.115,-0.261 -6.625,-0.463C-7.396,-0.769 -7.937,-1.521 -7.937,-2.411C-7.937,-3.554 -7,-4.428 -5.899,-4.567L-5.491,-4.619L-5.249,-4.952C-4.957,-5.352 -4.532,-5.641 -4.06,-5.784L-3.421,-5.977L-3.384,-6.642C-3.296,-8.175 -1.862,-9.193 -0.395,-9.193C0.709,-9.193 1.801,-8.634 2.319,-7.637L2.586,-7.123L3.164,-7.122C4.097,-7.121 4.997,-6.585 5.329,-5.696L5.552,-5.097L6.191,-5.076C7.507,-5.033 8.695,-4.04 8.695,-2.678C8.695,-1.468 7.761,-0.556 6.635,-0.331L6.632,-0.316L2.045,-0.316C2.045,-0.316 0.141,0.092 -0.009,2.053C-0.816,2.85 -2.39,4.769 -2.537,4.915C-3.093,4.633 -3.732,4.667 -4.254,5.189C-4.776,5.711 -4.833,6.706 -4.254,7.285C-3.675,7.864 -2.699,7.826 -2.158,7.285C-1.618,6.744 -1.589,6.007 -1.961,5.433L-0.005,3.133L-0.001,3.399L-0.001,8.317L0,8.317ZM4.628,6.77C4.922,6.476 4.922,5.998 4.628,5.704C4.333,5.41 3.856,5.41 3.562,5.704C3.268,5.998 3.268,6.475 3.562,6.77C3.856,7.064 4.333,7.064 4.628,6.77M-3.739,6.77C-4.033,6.476 -4.033,5.998 -3.739,5.704C-3.445,5.41 -2.968,5.41 -2.673,5.704C-2.379,5.998 -2.379,6.475 -2.673,6.77C-2.968,7.064 -3.445,7.064 -3.739,6.77M-2.778,17.736C-3.194,17.736 -3.532,17.398 -3.532,16.982C-3.532,16.566 -3.194,16.228 -2.778,16.228C-2.362,16.228 -2.025,16.566 -2.025,16.982C-2.025,17.398 -2.362,17.736 -2.778,17.736M3.687,17.736C4.103,17.736 4.44,17.398 4.44,16.982C4.44,16.566 4.103,16.228 3.687,16.228C3.271,16.228 2.934,16.566 2.934,16.982C2.934,17.398 3.271,17.736 3.687,17.736" style="fill:white;"/>
        </g>
        <g transform="matrix(4.16667,0,0,4.16667,36,-267.429)">
            <path d="M65.476,97.401L60.644,97.401L60.644,82.191L65.476,82.191L65.476,97.401ZM51.413,97.401C51.959,97.414 52.448,97.418 52.878,97.41C53.309,97.404 53.694,97.378 54.031,97.335C54.368,97.292 54.67,97.224 54.936,97.13C55.201,97.037 55.449,96.911 55.679,96.754C55.866,96.624 56.016,96.502 56.131,96.387C56.246,96.273 56.333,96.179 56.39,96.108C56.62,95.849 56.828,95.511 57.014,95.095C57.201,94.678 57.295,94.104 57.295,93.371C57.295,92.466 57.198,91.795 57.004,91.357C56.81,90.919 56.541,90.577 56.196,90.334C55.88,90.09 55.546,89.928 55.194,89.849C54.843,89.77 54.479,89.702 54.106,89.644C54.379,89.572 54.652,89.49 54.925,89.396C55.198,89.303 55.456,89.156 55.701,88.955C55.858,88.825 55.999,88.682 56.12,88.524C56.243,88.366 56.346,88.176 56.433,87.953C56.519,87.731 56.587,87.465 56.638,87.156C56.688,86.847 56.713,86.485 56.713,86.068C56.713,85.278 56.602,84.657 56.379,84.204C56.157,83.752 55.902,83.411 55.614,83.181C55.341,82.937 55.043,82.75 54.72,82.621C54.397,82.492 54.059,82.395 53.708,82.33C53.356,82.266 53,82.226 52.641,82.212C52.282,82.197 51.93,82.19 51.586,82.19L37.539,82.19L37.539,97.401L51.413,97.401ZM91.032,92.402C91.032,92.69 91.036,93.001 91.043,93.339C91.05,93.677 91.079,94.018 91.129,94.363C91.18,94.707 91.262,95.037 91.377,95.353C91.492,95.669 91.657,95.943 91.872,96.172C92.059,96.373 92.267,96.541 92.497,96.678C92.727,96.815 92.971,96.926 93.229,97.012C93.488,97.099 93.747,97.163 94.005,97.206L94.781,97.335C95.814,97.393 96.835,97.447 97.84,97.496C98.846,97.547 99.857,97.572 100.878,97.572C101.825,97.572 102.759,97.554 103.679,97.519C104.597,97.483 105.531,97.436 106.479,97.378C106.953,97.307 107.412,97.217 107.857,97.109C108.303,97.001 108.705,96.819 109.064,96.56C109.193,96.459 109.305,96.359 109.398,96.258C109.491,96.157 109.589,96.043 109.689,95.913C109.933,95.583 110.124,95.181 110.26,94.707C110.396,94.233 110.465,93.565 110.465,92.703C110.465,92.143 110.425,91.658 110.346,91.249C110.266,90.84 110.159,90.488 110.022,90.194C109.887,89.899 109.728,89.652 109.549,89.45C109.369,89.249 109.186,89.077 109,88.933C108.87,88.833 108.737,88.746 108.601,88.675C108.465,88.603 108.31,88.542 108.138,88.491C107.966,88.442 107.767,88.395 107.546,88.352C107.323,88.308 107.054,88.273 106.737,88.244L97.602,87.921C97.315,87.892 97.043,87.852 96.784,87.802C96.525,87.752 96.296,87.594 96.095,87.335C96.052,87.289 95.998,87.206 95.933,87.084C95.869,86.962 95.836,86.818 95.836,86.66C95.836,86.503 95.872,86.355 95.944,86.226C96.015,86.096 96.066,86.007 96.095,85.964C96.281,85.719 96.504,85.572 96.763,85.53C97.021,85.487 97.294,85.457 97.581,85.443C98.026,85.429 98.465,85.415 98.895,85.4C99.326,85.386 99.764,85.379 100.21,85.379C100.769,85.379 101.334,85.389 101.901,85.411C102.469,85.432 103.032,85.457 103.593,85.487C103.893,85.515 104.141,85.554 104.336,85.605C104.529,85.655 104.687,85.727 104.809,85.821C104.931,85.913 105.028,86.05 105.1,86.23C105.172,86.409 105.244,86.643 105.315,86.93L109.926,86.951C109.94,86.621 109.943,86.287 109.936,85.949C109.93,85.612 109.893,85.289 109.829,84.984C109.764,84.675 109.66,84.38 109.516,84.093C109.373,83.809 109.172,83.544 108.913,83.303C108.713,83.116 108.5,82.962 108.278,82.843C108.055,82.721 107.84,82.621 107.632,82.542C107.423,82.463 107.24,82.409 107.082,82.381C106.924,82.352 106.802,82.33 106.716,82.316L105.876,82.19C104.957,82.147 104.041,82.104 103.129,82.061C102.217,82.018 101.302,81.996 100.383,81.996C99.549,81.996 98.72,82.01 97.893,82.039C97.068,82.068 96.238,82.097 95.405,82.126C94.759,82.197 94.156,82.305 93.596,82.448C93.036,82.593 92.533,82.901 92.088,83.375C91.814,83.662 91.606,83.986 91.463,84.344C91.362,84.589 91.287,84.862 91.237,85.163C91.186,85.465 91.15,85.756 91.129,86.036C91.107,86.316 91.093,86.553 91.086,86.747C91.079,86.941 91.075,87.052 91.075,87.08C91.075,87.856 91.165,88.485 91.345,88.966C91.524,89.447 91.736,89.817 91.98,90.075C92.167,90.276 92.364,90.438 92.572,90.56C92.781,90.682 92.985,90.782 93.186,90.862C93.388,90.941 93.567,90.994 93.724,91.023C93.883,91.052 93.998,91.073 94.07,91.088C94.184,91.116 94.296,91.134 94.403,91.142C94.512,91.149 94.623,91.166 94.737,91.196C95.096,91.224 95.452,91.249 95.804,91.271C96.156,91.292 96.512,91.318 96.87,91.346C97.99,91.418 99.107,91.461 100.221,91.476C101.334,91.489 102.45,91.511 103.57,91.54C104.116,91.612 104.525,91.673 104.799,91.723C105.071,91.774 105.302,91.928 105.488,92.187C105.589,92.33 105.649,92.459 105.671,92.574C105.692,92.69 105.703,92.782 105.703,92.854C105.703,93.113 105.617,93.35 105.445,93.565C105.272,93.78 105.064,93.931 104.82,94.018C104.576,94.118 104.317,94.165 104.045,94.157C103.771,94.151 103.599,94.147 103.527,94.147C102.996,94.161 102.471,94.176 101.955,94.19C101.437,94.204 100.921,94.204 100.403,94.19C99.915,94.176 99.434,94.161 98.96,94.147C98.486,94.133 98.005,94.111 97.516,94.082C97.014,94.039 96.64,93.96 96.396,93.845C96.152,93.731 95.987,93.551 95.901,93.307C95.844,93.177 95.811,93.041 95.804,92.898C95.797,92.754 95.793,92.596 95.793,92.423L91.032,92.402ZM68.584,92.402C68.584,92.69 68.588,93.001 68.595,93.339C68.601,93.677 68.631,94.018 68.68,94.363C68.73,94.707 68.813,95.037 68.929,95.353C69.043,95.669 69.209,95.943 69.424,96.172C69.61,96.373 69.819,96.541 70.049,96.678C70.278,96.815 70.522,96.926 70.781,97.012C71.04,97.099 71.298,97.163 71.556,97.206C71.815,97.249 72.074,97.292 72.332,97.335C73.366,97.393 74.386,97.447 75.391,97.496C76.396,97.547 77.409,97.572 78.429,97.572C79.377,97.572 80.31,97.554 81.23,97.519C82.149,97.483 83.083,97.436 84.03,97.378C84.505,97.307 84.964,97.217 85.409,97.109C85.854,97.001 86.257,96.819 86.616,96.56C86.745,96.459 86.856,96.359 86.95,96.258C87.043,96.157 87.139,96.043 87.24,95.913C87.484,95.583 87.675,95.181 87.811,94.707C87.948,94.233 88.016,93.565 88.016,92.703C88.016,92.143 87.976,91.658 87.897,91.249C87.818,90.84 87.711,90.488 87.574,90.194C87.438,89.899 87.28,89.652 87.1,89.45C86.921,89.249 86.737,89.077 86.551,88.933C86.422,88.833 86.289,88.746 86.152,88.675C86.015,88.603 85.861,88.542 85.689,88.491C85.517,88.442 85.319,88.395 85.096,88.352C84.874,88.308 84.604,88.273 84.289,88.244L75.154,87.921C74.867,87.892 74.595,87.852 74.336,87.802C74.077,87.752 73.847,87.594 73.646,87.335C73.603,87.289 73.55,87.206 73.485,87.084C73.42,86.962 73.388,86.818 73.388,86.66C73.388,86.503 73.424,86.355 73.496,86.226C73.567,86.096 73.618,86.007 73.646,85.964C73.833,85.719 74.055,85.572 74.314,85.53C74.573,85.487 74.846,85.457 75.133,85.443C75.578,85.429 76.016,85.415 76.447,85.4C76.878,85.386 77.316,85.379 77.762,85.379C78.321,85.379 78.885,85.389 79.453,85.411C80.019,85.432 80.584,85.457 81.143,85.487C81.445,85.515 81.693,85.554 81.887,85.605C82.081,85.655 82.239,85.727 82.36,85.821C82.482,85.913 82.58,86.05 82.652,86.23C82.723,86.409 82.795,86.643 82.867,86.93L87.477,86.951C87.492,86.621 87.495,86.287 87.488,85.949C87.481,85.612 87.445,85.289 87.381,84.984C87.316,84.675 87.212,84.38 87.068,84.093C86.925,83.809 86.723,83.544 86.465,83.303C86.263,83.116 86.052,82.962 85.829,82.843C85.606,82.721 85.391,82.621 85.183,82.542C84.974,82.463 84.792,82.409 84.634,82.381C84.475,82.352 84.353,82.33 84.267,82.316L83.428,82.19C82.508,82.147 81.593,82.104 80.68,82.061C79.768,82.018 78.852,81.996 77.933,81.996C77.1,81.996 76.271,82.01 75.445,82.039C74.619,82.068 73.79,82.097 72.957,82.126C72.31,82.197 71.708,82.305 71.147,82.448C70.587,82.593 70.085,82.901 69.639,83.375C69.366,83.662 69.158,83.986 69.014,84.344C68.914,84.589 68.839,84.862 68.788,85.163C68.738,85.465 68.702,85.756 68.68,86.036C68.659,86.316 68.644,86.553 68.638,86.747C68.631,86.941 68.627,87.052 68.627,87.08C68.627,87.856 68.717,88.485 68.896,88.966C69.075,89.447 69.287,89.817 69.531,90.075C69.719,90.276 69.916,90.438 70.124,90.56C70.332,90.682 70.537,90.782 70.738,90.862C70.939,90.941 71.119,90.994 71.276,91.023C71.434,91.052 71.55,91.073 71.621,91.088C71.736,91.116 71.847,91.134 71.955,91.142C72.063,91.149 72.175,91.166 72.289,91.196C72.648,91.224 73.004,91.249 73.355,91.271C73.707,91.292 74.062,91.318 74.422,91.346C75.542,91.418 76.659,91.461 77.772,91.476C78.885,91.489 80.002,91.511 81.122,91.54C81.668,91.612 82.077,91.673 82.35,91.723C82.623,91.774 82.852,91.928 83.04,92.187C83.139,92.33 83.201,92.459 83.222,92.574C83.244,92.69 83.255,92.782 83.255,92.854C83.255,93.113 83.169,93.35 82.996,93.565C82.824,93.78 82.616,93.931 82.372,94.018C82.128,94.118 81.869,94.165 81.596,94.157C81.323,94.151 81.151,94.147 81.079,94.147C80.548,94.161 80.023,94.176 79.507,94.19C78.989,94.204 78.472,94.204 77.955,94.19C77.467,94.176 76.985,94.161 76.512,94.147C76.038,94.133 75.556,94.111 75.068,94.082C74.565,94.039 74.192,93.96 73.948,93.845C73.704,93.731 73.539,93.551 73.452,93.307C73.395,93.177 73.362,93.041 73.355,92.898C73.348,92.754 73.345,92.596 73.345,92.423L68.584,92.402ZM42.15,85.508L50.185,85.508C50.515,85.522 50.81,85.551 51.069,85.594C51.327,85.637 51.557,85.802 51.758,86.09C51.945,86.32 52.038,86.578 52.038,86.865C52.038,87.066 52.002,87.235 51.93,87.371C51.859,87.508 51.801,87.605 51.758,87.662C51.557,87.949 51.313,88.111 51.026,88.147C50.739,88.183 50.422,88.194 50.077,88.179L42.15,88.179L42.15,85.508ZM42.128,91.217L50.509,91.217C50.867,91.202 51.198,91.217 51.499,91.26C51.801,91.303 52.074,91.483 52.318,91.798C52.404,91.928 52.472,92.057 52.523,92.187C52.573,92.316 52.598,92.466 52.598,92.639C52.598,92.768 52.587,92.875 52.566,92.962C52.544,93.048 52.527,93.113 52.512,93.155C52.397,93.444 52.232,93.637 52.016,93.738C51.801,93.838 51.543,93.917 51.241,93.975L42.128,93.975L42.128,91.217Z" style="fill:white;"/>
        </g>
    </g>
</svg>
