<?xml version="1.0" encoding="UTF-8" standalone="no"?>
<!DOCTYPE svg PUBLIC "-//W3C//DTD SVG 1.1//EN" "http://www.w3.org/Graphics/SVG/1.1/DTD/svg11.dtd">
<svg width="100%" height="100%" viewBox="0 0 300 300" version="1.1" xmlns="http://www.w3.org/2000/svg" xmlns:xlink="http://www.w3.org/1999/xlink" xml:space="preserve" xmlns:serif="http://www.serif.com/" style="fill-rule:evenodd;clip-rule:evenodd;stroke-linejoin:round;stroke-miterlimit:2;">
    <g transform="matrix(3.03519,0,0,3.03519,-99.0022,-901.152)">
        <g>
            <g transform="matrix(1,0,0,1,34.2655,298.549)">
                <path d="M65.947,29.686C64.044,29.165 59.482,28.359 59.482,28.359C59.482,28.359 53.252,23.413 47.761,23.413C42.271,23.413 36.062,28.359 36.062,28.359C36.062,28.359 31.501,29.165 29.597,29.686C38.126,32.8 44.244,40.972 44.244,50.565C44.244,54.505 43.204,58.205 41.399,61.418L54.141,61.418C52.336,58.205 51.296,54.507 51.296,50.565C51.3,40.973 57.419,32.801 65.947,29.686Z" style="fill:white;fill-rule:nonzero;"/>
            </g>
            <g transform="matrix(1,0,0,1,34.2655,298.549)">
                <path d="M20.749,30.635C9.308,30.635 0,39.943 0,51.383C0,62.823 9.308,72.133 20.749,72.133C32.19,72.133 41.499,62.823 41.499,51.383C41.499,39.941 32.19,30.635 20.749,30.635ZM20.749,64.488C13.523,64.488 7.645,58.61 7.645,51.384C7.645,44.158 13.524,38.28 20.749,38.28C27.975,38.28 33.854,44.16 33.854,51.384C33.854,58.61 27.975,64.488 20.749,64.488Z" style="fill:white;fill-rule:nonzero;"/>
                <path d="M12.287,44.776C9.449,48.456 9.692,53.538 12.617,56.922C11.579,53.466 12.155,49.579 14.527,46.505C16.9,43.43 20.513,41.888 24.12,42.016C20.105,40.044 15.126,41.099 12.287,44.776Z" style="fill:white;fill-rule:nonzero;"/>
                <path d="M74.797,30.635C63.356,30.635 54.047,39.943 54.047,51.384C54.047,62.825 63.356,72.134 74.797,72.134C86.238,72.134 95.546,62.824 95.546,51.384C95.546,39.941 86.238,30.635 74.797,30.635ZM74.797,64.488C67.57,64.488 61.692,58.61 61.692,51.384C61.692,44.158 67.571,38.28 74.797,38.28C82.023,38.28 87.9,44.159 87.9,51.383C87.9,58.61 82.023,64.488 74.797,64.488Z" style="fill:white;fill-rule:nonzero;"/>
                <path d="M71.426,42.017C75.033,41.889 78.647,43.431 81.02,46.506C83.393,49.58 83.967,53.468 82.93,56.923C85.854,53.538 86.098,48.456 83.259,44.777C80.42,41.099 75.441,40.044 71.426,42.017Z" style="fill:white;fill-rule:nonzero;"/>
            </g>
        </g>
    </g>
</svg>
