<?xml version="1.0" encoding="UTF-8" standalone="no"?>
<!DOCTYPE svg PUBLIC "-//W3C//DTD SVG 1.1//EN" "http://www.w3.org/Graphics/SVG/1.1/DTD/svg11.dtd">
<svg width="100%" height="100%" viewBox="0 0 300 300" version="1.1" xmlns="http://www.w3.org/2000/svg" xmlns:xlink="http://www.w3.org/1999/xlink" xml:space="preserve" xmlns:serif="http://www.serif.com/" style="fill-rule:evenodd;clip-rule:evenodd;stroke-linejoin:round;stroke-miterlimit:2;">
    <g transform="matrix(0.586761,0,0,0.586761,150,150)">
        <g id="door--1-" serif:id="door (1)" transform="matrix(1,0,0,1,-247.119,-247.119)">
            <path d="M199.725,0L199.725,36.025L85.211,36.025L85.211,457.685L199.725,457.779L199.725,494.238L408.81,456.683L409.026,37.816L199.725,0ZM234.404,230.574C241.426,230.574 247.119,237.982 247.119,247.119C247.119,256.258 241.427,263.664 234.404,263.664C227.381,263.664 221.689,256.258 221.689,247.119C221.688,237.982 227.382,230.574 234.404,230.574ZM119.211,423.713L119.211,70.025L199.725,70.025L199.725,423.778L119.211,423.713Z" style="fill:white;fill-rule:nonzero;"/>
        </g>
    </g>
</svg>
