<?xml version="1.0" encoding="UTF-8" standalone="no"?>
<!DOCTYPE svg PUBLIC "-//W3C//DTD SVG 1.1//EN" "http://www.w3.org/Graphics/SVG/1.1/DTD/svg11.dtd">
<svg width="100%" height="100%" viewBox="0 0 300 300" version="1.1" xmlns="http://www.w3.org/2000/svg" xmlns:xlink="http://www.w3.org/1999/xlink" xml:space="preserve" xmlns:serif="http://www.serif.com/" style="fill-rule:evenodd;clip-rule:evenodd;stroke-linejoin:round;stroke-miterlimit:2;">
    <g id="door--2-" serif:id="door (2)" transform="matrix(0.60585,0,0,0.60585,150,150)">
        <g transform="matrix(1,0,0,1,-239.333,-239.333)">
            <path d="M71.553,0L71.553,478.085L407.114,478.666L407.114,0L71.553,0ZM103.109,446.583L103.109,31.558L375.554,31.558L375.554,88.371L364.773,88.371L364.773,42.086L113.893,42.086L113.893,436.554L364.774,436.554L364.774,390.27L375.555,390.27L375.555,447.055L103.109,446.583ZM364.773,137.459L375.554,137.459L375.554,341.18L364.773,341.18L364.773,137.459ZM165.787,239.32C165.787,248.468 158.369,255.886 149.219,255.886C140.069,255.886 132.651,248.468 132.651,239.32C132.651,230.17 140.069,222.752 149.219,222.752C158.369,222.752 165.787,230.17 165.787,239.32Z" style="fill:white;fill-rule:nonzero;"/>
            <g id="Rotation-Lock" serif:id="Rotation Lock" transform="matrix(1,0,0,1,-8460.42,-635.667)">
                <g>
                    <g transform="matrix(2,0,0,2,8649,471.999)">
                        <path d="M48.691,208.371L52.865,201.144L49.939,201.238C49.542,192.756 42.548,186 33.979,186C25.154,186 18.001,193.164 18.001,202C18.001,210.837 25.154,218 33.979,218C38.287,218 42.197,216.293 45.071,213.517C45.465,213.137 45.513,212.522 45.16,212.103L44.976,211.885C44.615,211.457 43.961,211.407 43.561,211.799C41.091,214.222 37.709,215.715 33.979,215.715C26.415,215.715 20.283,209.574 20.283,202C20.283,194.426 26.415,188.286 33.979,188.286C41.287,188.286 47.259,194.018 47.653,201.238L44.518,201.144L48.691,208.371Z" style="fill:white;"/>
                    </g>
                    <g transform="matrix(2,0,0,2,8649,470.474)">
                        <path d="M36.553,201.14C36.553,201.618 36.166,202.004 35.689,202.004L32.231,202.004C31.754,202.004 31.367,201.618 31.367,201.14L31.367,198.949C31.367,197.691 32.531,196.667 33.96,196.667C35.389,196.667 36.553,197.694 36.553,198.949L36.553,201.14ZM33.96,195.143C31.578,195.143 29.638,196.847 29.638,198.949L29.638,201.136C29.638,201.614 29.251,202 28.774,202C28.297,202 27.909,202.387 27.909,202.865L27.909,208.755C27.909,209.233 28.297,209.619 28.774,209.619L39.146,209.619C39.623,209.619 40.011,209.233 40.011,208.755L40.011,202.865C40.011,202.387 39.623,202 39.146,202C38.669,202 38.282,201.614 38.282,201.136L38.282,198.949C38.282,196.854 36.347,195.143 33.96,195.143Z" style="fill:white;"/>
                    </g>
                </g>
            </g>
        </g>
    </g>
    <g transform="matrix(2.9,0,0,2.9,4.45824,-447.858)">
        <path d="M36.553,201.14C36.553,201.618 36.166,202.004 35.689,202.004L32.231,202.004C31.754,202.004 31.367,201.618 31.367,201.14L31.367,198.949C31.367,197.691 32.531,196.667 33.96,196.667C35.389,196.667 36.553,197.694 36.553,198.949L36.553,201.14ZM33.96,195.143C31.578,195.143 29.638,196.847 29.638,198.949L29.638,201.136C29.638,201.614 29.251,202 28.774,202C28.297,202 27.909,202.387 27.909,202.865L27.909,208.755C27.909,209.233 28.297,209.619 28.774,209.619L39.146,209.619C39.623,209.619 40.011,209.233 40.011,208.755L40.011,202.865C40.011,202.387 39.623,202 39.146,202C38.669,202 38.282,201.614 38.282,201.136L38.282,198.949C38.282,196.854 36.347,195.143 33.96,195.143Z" style="fill:rgb(173,173,173);"/>
    </g>
</svg>
