<?xml version="1.0" standalone="no"?>
<!DOCTYPE svg PUBLIC "-//W3C//DTD SVG 20010904//EN"
 "http://www.w3.org/TR/2001/REC-SVG-20010904/DTD/svg10.dtd">
<svg version="1.0" xmlns="http://www.w3.org/2000/svg"
 width="1024.000000pt" height="1024.000000pt" viewBox="0 0 1024.000000 1024.000000"
 preserveAspectRatio="xMidYMid meet">
<metadata>
Created by potrace 1.11, written by Peter Selinger 2001-2013
</metadata>
<g transform="translate(0.000000,1024.000000) scale(0.100000,-0.100000)"
fill="#000000" stroke="none">
<path d="M895 10233 c-161 -22 -336 -92 -463 -185 -223 -162 -363 -384 -417
-658 -21 -110 -21 -8400 0 -8528 36 -217 132 -404 291 -564 43 -43 81 -78 85
-78 4 0 14 -6 21 -13 7 -8 31 -25 53 -39 124 -77 202 -110 380 -155 17 -4
1929 -9 4250 -10 4481 -2 4263 -4 4414 41 229 68 462 247 580 446 45 76 104
213 117 272 34 152 33 79 31 4398 l-2 4215 -23 80 c-59 209 -144 358 -283 493
-146 141 -308 226 -519 272 -82 18 -244 18 -4285 18 -2310 -1 -4213 -3 -4230
-5z"/>
</g>
</svg>
